<svg width="240" height="224" viewBox="0 0 240 224" fill="none" xmlns="http://www.w3.org/2000/svg">
<path d="M160 192C160 174.327 174.327 160 192 160C209.673 160 224 174.327 224 192C224 209.673 209.673 224 192 224C174.327 224 160 209.673 160 192Z" fill="#1D5128"/>
<path fill-rule="evenodd" clip-rule="evenodd" d="M240 80C240 35.8172 204.183 0 160 0H96V64H160C164.418 64 168 67.5817 168 72C168 76.4183 164.418 80 160 80H35.1571C15.7404 80 0 95.7404 0 115.157V144C0 188.183 35.8172 224 80 224H144V160H80C71.1634 160 64 152.837 64 144H204.843C224.26 144 240 128.26 240 108.843V80Z" fill="#1D5128"/>
</svg>
